<svg
    height="92"
    viewBox="0 0 120 92"
    width="120"
    xmlns="http://www.w3.org/2000/svg"
    ><g
        fill="#2A367B"
        fill-rule="evenodd"
        ><path
            d="m50.5347388 39.0601649c-.3171428 2.2222269-1.1057142 3.8184743-2.7457142 4.9186805-1.052381.7037525-2.6257143 2.0050309-4.2495239 2.1852371-1.415238.1602886-2.6838095-.6003712-4.3123809-.3556701-3.5285714-1.7764536-5.212381-6.7729072-4.4676191-11.5237114.46-2.962969 3.1771429-6.582268 6.1695239-6.5557113.8714285.0028454 1.9028571.4894021 3.1561904.8137732 2.9114286.7492783 6.24.9285361 6.7266667 4.0992165.2 1.3401649-.0561905 4.8266804-.2771429 6.4181855m45.9561905 12.4313815c-.4447619-2.2345567-.5428571-4.5772371-1.5066666-6.4200825-3.2609524.3642062-6.34 2.3976907-10.2904762 1.9101856-.8209524-.0967423-1.5285715-.4618969-2.3342858-.6297732-.6771428-.1375258-1.4095238-.1508041-2.0533333-.3215258-2.5780952-.6999587-4.0104762-3.2835464-3.5704762-6.8317113.26-2.0941856 1.5504762-3.0834227 2.8838095-4.3742681 2.2628572-.4694845 4.2076191-1.9813196 6.4438096-2.728701 1.96-.6496907 4.16-.7284124 5.8980952-1.911134.5095238-3.4362474-.6961905-7.4927835-1.3685714-10.6577732-2.8771429.4552577-5.5733334.8023917-8.0914286 1.503299-2.5228571.7075463-4.6895238 1.9357938-7.0019048 2.7324948.86-5.5038763-.8723809-10.9830928-1.0419047-16.3883299-.0761905-2.45649484.4009524-4.84375257-.3266667-7.23954639-4.4257143-.01138144-8.9428571.06923712-13.1685714-.13468041-.1638095.02465979-.152381.21529897-.14.40783505-.2552381 2.82354639-.7695238 5.51336083-.6876191 8.19748454.0314286.87921649.2228572 1.60857731.3590477 2.45554641.5590476 3.5367835-.752381 7.1731546-.6285715 10.9309278-2.0771428-.940866-3.3838095-2.6490309-5.08-3.9635876-5.9314285-2.515299-12.6438095-3.1336907-18.6571428-1.3638763-2.5980953.7597113-4.2771429 1.8276701-6.1714286 3.2778557-2.3 1.7527422-3.3523809 2.3967422-4.9380952 4.508-.5628572.7454845-1.3847619 1.4037113-1.7828572 2.0486598-1.7638095 2.8368247-2.7542857 6.8364536-2.06 11.4677525.6 3.9910928 2.6638095 8.9818557 4.5285715 11.3406598.3485714.4381856.6295238.9484536.9580952 1.3657732 2.8085714 3.5073815 6.2152381 6.9085361 11.9380952 7.5098557 2.6419048.2788454 6.5333334-.1460619 8.6409524-.5482062 1.2380952-.2276289 2.5285714-.204866 3.4285714-.5444124.5828572-.2200412 1.092381-.5728659 1.6476191-.7635051.4857143-.1650309 1.0285714-.3035052 1.5085714-.4647423 1.5409524-.5225979 2.7876191-1.4473402 4.3857143-2.1890309.2961905 1.5175258 1.072381 3.167835 1.1304762 4.9196289.0323809 1.0385567-.2628572 2.1065154.2466667 3.0037525 3.12.2295258 6.8028571-.4049897 10.1466666-.5453608 1.1438095-.0483711 2.5428572.2921237 3.432381-.4068866.5352381-1.1002062-.4847619-2.9269278.2714285-3.8270103 6.9142858 3.2645773 16.3971429.6250309 24.1485715-.2750515.2990476-1.6825567-.7609524-3.3347629-1.0971429-5.0505155"/><path d="m7.25428571 85.3816907c2.97523809 0 3.98761909-2.3047422 3.98761909-5.0438763 0-2.7400824-1.31619051-4.6863092-3.98761909-4.6863092-2.66761904 0-3.98666666 1.9462268-3.98666666 4.6863092 0 2.7391341.91428571 5.0438763 3.98666666 5.0438763m0-12.3507629c4.71047619 0 7.25904759 3.1185155 7.25904759 7.3068866 0 4.0299794-2.3523809 7.6625567-7.25904759 7.6625567-5.14190476 0-7.25428571-3.3347629-7.25428571-7.6625567 0-4.1883711 2.55238095-7.3068866 7.25428571-7.3068866"/><path d="m16.1904762 78.2749278c0-.8754226.4009524-1.4501855 1.3161905-1.4501855.9161904 0 1.3190476.5747629 1.3190476 1.4501855v.3717938h.0371428c.8133334-1.0698556 1.8695239-1.8219793 3.5304762-1.8219793 1.7504762 0 3.6647619.8744742 3.6647619 3.8137319v5.6338145c0 .775835-.3190476 1.4492371-1.4542857 1.4492371-1.1333333 0-1.4542857-.6734021-1.4542857-1.4492371v-5.0609485c0-1.1703917-.5790476-2.0050309-1.8371428-2.0050309-1.0142858 0-2.2104762.8346392-2.2104762 2.2829278v4.7830516c0 .775835-.3209524 1.4492371-1.4571429 1.4492371-1.1371429 0-1.4542857-.6734021-1.4542857-1.4492371z"/><path d="m28.5714286 74.4754227c0-.9503505.5790476-1.4444949 1.4533333-1.4444949.8809524 0 1.4609524.4941444 1.4609524 1.4444949v6.5936495l3.2304762-3.5699794c.2942857-.317732.6771428-.5586392 1.1104762-.5586392.6647619 0 1.38.5747629 1.38 1.308866 0 .5131134-.1809524.675299-.4419048.9531959l-2.147619 2.2459381 3.0285714 4.0489485c.0990476.1356288.2952381.4571546.2952381.9313814 0 .7350516-.5952381 1.4084536-1.3714286 1.4084536-.7161905 0-1.0971428-.3556701-1.3152381-.673402l-2.7542857-3.8687423-1.0142857.8905979v2.2023093c0 .9541443-.58 1.4492371-1.4609524 1.4492371-.8742857 0-1.4533333-.4950928-1.4533333-1.4492371z"/><path d="m44.4314286 85.580866c1.7333333 0 2.4780952-1.5459794 2.4780952-3.3195876 0-1.8826805-.7819048-3.2882887-2.4780952-3.2882887-1.6942857 0-2.4695238 1.4056082-2.4695238 3.2882887 0 1.7736082.7352381 3.3195876 2.4695238 3.3195876m0-8.7561237c3.5104762 0 5.3838095 2.3806185 5.3838095 5.4365361 0 2.902268-1.4171429 5.4602474-5.3838095 5.4602474-3.9666667 0-5.3838096-2.5579794-5.3838096-5.4602474 0-3.0559176 1.8790477-5.4365361 5.3838096-5.4365361"/><path d="m51.4285714 74.4754227c0-.9503505.5742857-1.4444949 1.4542857-1.4444949.8733334 0 1.4561905.4941444 1.4561905 1.4444949v11.9125773c0 .9541443-.5828571 1.4492371-1.4561905 1.4492371-.88 0-1.4542857-.4950928-1.4542857-1.4492371z"/><path d="m61.5742857 85.580866c1.7352381 0 2.4704762-1.5459794 2.4704762-3.3195876 0-1.8826805-.7761905-3.2882887-2.4704762-3.2882887-1.6961905 0-2.4714286 1.4056082-2.4714286 3.2882887 0 1.7736082.7380953 3.3195876 2.4714286 3.3195876m0-8.7561237c3.5114286 0 5.3809524 2.3806185 5.3809524 5.4365361 0 2.902268-1.4142857 5.4602474-5.3809524 5.4602474-3.9704762 0-5.3838095-2.5579794-5.3838095-5.4602474 0-3.0559176 1.8752381-5.4365361 5.3838095-5.4365361"/><path d="m73.8 85.0402474c1.2961905 0 2.2933333-.8498144 2.2933333-2.9164948 0-2.1036701-.8009523-3.0369485-2.1571428-3.0369485-1.8733334 0-2.452381 1.3714639-2.452381 3.1574021 0 1.3316289.6609524 2.7960412 2.3161905 2.7960412zm5.0857143 1.5715877c0 3.4903092-2.1590476 5.0988865-5.1885714 5.0988865-2.2133334 0-4.3847619-.991134-4.3847619-2.4024329 0-.7113402.5580952-1.2310928 1.1961904-1.2310928 1.2161905 0 1.4552381 1.490969 3.0895238 1.490969 1.7761905 0 2.4952381-.888701 2.4952381-3.1763711v-.5937319h-.0390476c-.5190476.7530721-1.6561905 1.3866391-2.8114286 1.3866391-3.0704761 0-4.6714285-1.9841649-4.6714285-4.8399587 0-3.7520825 2.1190476-5.52 4.5695238-5.52 1.4161905 0 2.5323809.6525361 3.0714286 1.7309278h.0428571v-.3613608c0-.8924949.4523809-1.369567 1.3114286-1.369567.8952381 0 1.3190476.4770721 1.3190476 1.369567z"/><path d="m81.0152381 78.4731546c0-.775835.3152381-1.4501855 1.4504762-1.4501855 1.1380952 0 1.46.6743505 1.46 1.4501855v7.9973609c0 .775835-.3219048 1.4492371-1.46 1.4492371-1.1352381 0-1.4504762-.6734021-1.4504762-1.4492371zm1.4504762-5.4422268c.8380952 0 1.5209524.675299 1.5209524 1.5099382 0 .8355876-.6828572 1.511835-1.5209524 1.511835-.8352381 0-1.5133333-.6762474-1.5133333-1.511835 0-.8346392.6780952-1.5099382 1.5133333-1.5099382z"/><path d="m86.6666667 74.4754227c0-.9503505.5752381-1.4444949 1.4533333-1.4444949.8771429 0 1.4561905.4941444 1.4561905 1.4444949v6.5936495l3.2333333-3.5699794c.2933333-.317732.6704762-.5586392 1.1114286-.5586392.6571428 0 1.3780952.5747629 1.3780952 1.308866 0 .5131134-.1819047.675299-.4409524.9531959l-2.1504762 2.2459381 3.0295239 4.0489485c.0980952.1356288.2971428.4571546.2971428.9313814 0 .7350516-.5952381 1.4084536-1.3742857 1.4084536-.7180952 0-1.0980952-.3556701-1.3142857-.673402l-2.7542857-3.8687423-1.0152381.8905979v2.2023093c0 .9541443-.5790476 1.4492371-1.4561905 1.4492371-.8780952 0-1.4533333-.4950928-1.4533333-1.4492371z"/><path d="m102.529524 85.580866c1.730476 0 2.470476-1.5459794 2.470476-3.3195876 0-1.8826805-.77619-3.2882887-2.470476-3.2882887-1.697143 0-2.472381 1.4056082-2.472381 3.2882887 0 1.7736082.73619 3.3195876 2.472381 3.3195876m0-8.7561237c3.506666 0 5.38 2.3806185 5.38 5.4365361 0 2.902268-1.418095 5.4602474-5.38 5.4602474-3.9704764 0-5.3866669-2.5579794-5.3866669-5.4602474 0-3.0559176 1.8761905-5.4365361 5.3866669-5.4365361"/><path d="m116.620952 82.5799588c-.32.2987628-.920952.3992989-1.258095.46l-1.057143.1583917c-1.21619.1764124-1.877143.5529485-1.877143 1.4302681 0 .6534845.621905 1.1903092 1.620953 1.1903092 1.593333 0 2.571428-1.030969 2.571428-2.1046185zm2.910477 2.0856494c0 1.2102269.295238 1.4871753.295238 1.9462269 0 .6544329-.615238 1.1096907-1.314286 1.1096907-1.258095 0-1.674286-.7957526-1.714286-1.687299-1.139047 1.2529072-2.448571 1.687299-3.986666 1.687299-1.656191 0-3.287619-1.1305567-3.287619-2.9553815 0-2.402433 1.827619-3.0777319 4.062857-3.3376082l1.77619-.194433c.694286-.081567 1.258095-.2409072 1.258095-1.0755464 0-.8308454-.859047-1.185567-1.837142-1.185567-2.154286 0-2.216191 1.5877113-3.369524 1.5877113-.737143 0-1.238096-.5197525-1.238096-1.1182268 0-1.1495257 1.635239-2.6177319 4.629524-2.6177319 2.789524 0 4.725715.8953402 4.725715 2.9781443z"
        />
    </g>
</svg>