<svg
    viewBox="0 0 75 58"
    width="75"
    height="58"
    xmlns="http://www.w3.org/2000/svg"
    ><g 
        fill="#2E397A"
        fill-rule="evenodd"
        ><path
            d="m31.5842118 24.6248866c-.1982143 1.4009691-.6910715 2.407299-1.7160715 3.1009072-.657738.4436701-1.6410714 1.2640413-2.6559523 1.3776495-.8845238.1010515-1.677381-.3784948-2.6952381-.2242268-2.2053572-1.1199381-3.2577381-4.2698763-2.7922619-7.2649485.2875-1.8679587 1.9857143-4.1496907 3.8559523-4.1329484.5446429.0017938 1.1892858.3085361 1.9726191.5130309 1.8196429.4723711 3.9.5853815 4.2041667 2.5842887.125.8448866-.0351191 3.0429072-.1732143 4.0462474m28.722619 7.8371753c-.2779762-1.4087423-.3392857-2.8856495-.9416666-4.0474433-2.0380953.2296082-3.9625 1.5115876-6.4315477 1.2042474-.5130952-.0609897-.9553571-.2911959-1.4589285-.3970309-.4232143-.0867011-.8809524-.0950722-1.2833334-.2027011-1.6113095-.4412783-2.5065476-2.0700618-2.2315476-4.3069484.1625-1.3202475.9690476-1.9438969 1.802381-2.7576908 1.4142857-.2959793 2.6297619-1.2490927 4.0273809-1.720268 1.225-.4095876 2.6-.4592165 3.6863095-1.2048454.3184524-2.1663299-.435119-4.7237113-.8553571-6.7190309-1.7982143.2870103-3.4833333.5058557-5.0571429.947732-1.5767857.4460618-2.9309523 1.2203917-4.3761904 1.7226598.5375-3.4698351-.5452381-6.92412374-.6511905-10.33177323-.0476191-1.54865979.2505952-3.0536701-.2041667-4.56406185-2.7660714-.00717526-5.5892857.04364948-8.2303571-.08490722-.102381.01554639-.0952381.13573196-.0875.2571134-.1595238 1.78006186-.4809524 3.47581444-.4297619 5.16797938.0196428.55428866.1392857 1.0141031.2244047 1.54806186.3494048 2.22971134-.4702381 4.52220616-.3928571 6.89123716-1.2982143-.5931547-2.114881-1.6700413-3.175-2.4987836-3.7071429-1.58573191-7.902381-1.97558758-11.6607143-.859835-1.6238095.4789484-2.6732143 1.1522268-3.8571428 2.0664742-1.4375 1.1049897-2.0952381 1.5109897-3.0863096 2.842-.3517857.4699794-.8654762.8849485-1.1142857 1.2915464-1.1023809 1.788433-1.7214286 4.3099382-1.2875 7.2296701.375 2.5161237 1.664881 5.6624742 2.8303572 7.1495464.2178571.2762474.3934523.5979382.5988095.8610309 1.7553571 2.2111753 3.8845238 4.3553815 7.4613095 4.7344743 1.6511905.1757938 4.0833333-.0920825 5.4005952-.3456083.7738096-.1435051 1.5803572-.1291546 2.1428572-.3432165.3642857-.1387216.6827381-.3611546 1.0297619-.4813402.3035714-.1040412.6428571-.1913402.9428571-.2929897.9630953-.3294639 1.7422619-.9124536 2.7410715-1.3800412.185119.956701.6702381 1.9971134.7065476 3.1015051.0202381.6547423-.1642857 1.3280207.1541666 1.8936701 1.95.1447011 4.2517858-.2553195 6.3416667-.3438144.714881-.0304948 1.5892857.184165 2.1452381-.2565155.3345238-.6936082-.3029762-1.8452371.1696429-2.4126804 4.3214285 2.0581031 10.2482143.3940413 15.0928571-.173402.1869048-1.0607423-.4755952-2.1023505-.6857143-3.1840206"/><path d="m4.53392857 53.8275876c1.85952381 0 2.49226191-1.4529897 2.49226191-3.179835 0-1.7274433-.82261905-2.9544124-2.49226191-2.9544124-1.6672619 0-2.49166667 1.2269691-2.49166667 2.9544124 0 1.7268453.57142858 3.179835 2.49166667 3.179835m0-7.7863505c2.94404762 0 4.53690476 1.9660206 4.53690476 4.6065155 0 2.5406392-1.47023809 4.8307422-4.53690476 4.8307422-3.21369047 0-4.53392857-2.1023505-4.53392857-4.8307422 0-2.6404949 1.5952381-4.6065155 4.53392857-4.6065155"/><path d="m10.1190476 49.3472371c0-.5518969.2505953-.9142474.8226191-.9142474.572619 0 .8244047.3623505.8244047.9142474v.2343918h.0232143c.5083333-.6744743 1.1684524-1.1486392 2.2065476-1.1486392 1.0940477 0 2.2904762.551299 2.2904762 2.4043093v3.5517525c0 .4891134-.1994047.9136495-.9089285.9136495-.7083334 0-.9089286-.4245361-.9089286-.9136495v-3.1905979c0-.7378557-.3619048-1.2640412-1.1482143-1.2640412-.6339286 0-1.3815476.5261855-1.3815476 1.4392371v3.015402c0 .4891134-.2005953.9136495-.9107143.9136495-.7107143 0-.9089286-.4245361-.9089286-.9136495z"/><path d="m17.8571429 46.9518969c0-.599134.3619047-.9106598.9083333-.9106598.5505952 0 .9130952.3115258.9130952.9106598v4.156866l2.0190476-2.2506392c.1839286-.2003093.4232143-.3521856.6940477-.3521856.4154762 0 .8625.3623506.8625.8251547 0 .3234845-.1130953.4257319-.2761905.6009278l-1.3422619 1.4159175 1.8928571 2.552598c.0619048.0855051.1845238.2882062.1845238.5871752 0 .4634021-.3720238.8879382-.8571428.8879382-.4476191 0-.6857143-.2242268-.8220238-.4245361l-1.7214286-2.4389897-.6339286.5614639v1.3884124c0 .6015258-.3625.9136495-.9130952.9136495-.5464286 0-.9083333-.3121237-.9083333-.9136495z"/><path d="m27.7696429 53.9531546c1.0833333 0 1.5488095-.9746391 1.5488095-2.0927835 0-1.1869072-.4886905-2.0730515-1.5488095-2.0730515-1.0589286 0-1.5434524.8861443-1.5434524 2.0730515 0 1.1181444.4595238 2.0927835 1.5434524 2.0927835m0-5.5201649c2.1940476 0 3.3648809 1.5008247 3.3648809 3.4273814 0 1.8296908-.8857143 3.4423299-3.3648809 3.4423299-2.4791667 0-3.364881-1.6126391-3.364881-3.4423299 0-1.9265567 1.1744048-3.4273814 3.364881-3.4273814"/><path d="m32.1428571 46.9518969c0-.599134.3589286-.9106598.9089286-.9106598.5458333 0 .9101191.3115258.9101191.9106598v7.5101031c0 .6015258-.3642858.9136495-.9101191.9136495-.55 0-.9089286-.3121237-.9089286-.9136495z"/><path d="m38.4839286 53.9531546c1.0845238 0 1.5440476-.9746391 1.5440476-2.0927835 0-1.1869072-.4851191-2.0730515-1.5440476-2.0730515-1.0601191 0-1.5446429.8861443-1.5446429 2.0730515 0 1.1181444.4613095 2.0927835 1.5446429 2.0927835m0-5.5201649c2.1946428 0 3.3630952 1.5008247 3.3630952 3.4273814 0 1.8296908-.8839286 3.4423299-3.3630952 3.4423299-2.4815476 0-3.364881-1.6126391-3.364881-3.4423299 0-1.9265567 1.1720238-3.4273814 3.364881-3.4273814"/><path d="m46.125 53.6123299c.810119 0 1.4333333-.5357526 1.4333333-1.8386598 0-1.3262268-.5005952-1.9145979-1.3482143-1.9145979-1.1708333 0-1.532738.8646185-1.532738 1.990536 0 .8395052.4130952 1.7627217 1.447619 1.7627217zm3.1785714.9907835c0 2.2004124-1.3494047 3.2145155-3.2428571 3.2145155-1.3833333 0-2.7404762-.6248454-2.7404762-1.5145774 0-.4484536.3488095-.7761237.747619-.7761237.7601191 0 .9095239.9399588 1.9309524.9399588 1.1101191 0 1.5595238-.560268 1.5595238-2.0024948v-.3743093h-.0244047c-.3244048.4747629-1.0351191.8741855-1.7571429.8741855-1.9190476 0-2.9196428-1.2508866-2.9196428-3.0512783 0-2.3654433 1.3244047-3.48 2.8559523-3.48.8851191 0 1.5827381.4113814 1.9196429 1.0912371h.0267857v-.2278144c0-.5626598.2827381-.8634227.8196429-.8634227.5595238 0 .8244047.3007629.8244047.8634227z"/><path d="m50.6345238 49.4722062c0-.4891134.1970238-.9142474.9065476-.9142474.7113096 0 .9125.425134.9125.9142474v5.0418144c0 .4891134-.2011904.9136495-.9125.9136495-.7095238 0-.9065476-.4245361-.9065476-.9136495zm.9065476-3.4309691c.5238096 0 .9505953.425732.9505953.9519175 0 .5267835-.4267857.9531134-.9505953.9531134-.5220238 0-.9458333-.4263299-.9458333-.9531134 0-.5261855.4238095-.9519175.9458333-.9519175z"/><path d="m54.1666667 46.9518969c0-.599134.3595238-.9106598.9083333-.9106598.5482143 0 .910119.3115258.910119.9106598v4.156866l2.0208334-2.2506392c.1833333-.2003093.4190476-.3521856.6946428-.3521856.4107143 0 .8613096.3623506.8613096.8251547 0 .3234845-.1136905.4257319-.2755953.6009278l-1.3440476 1.4159175 1.8934524 2.552598c.0613095.0855051.1857143.2882062.1857143.5871752 0 .4634021-.3720238.8879382-.8589286.8879382-.4488095 0-.6863095-.2242268-.8214286-.4245361l-1.7214285-2.4389897-.6345239.5614639v1.3884124c0 .6015258-.3619047.9136495-.910119.9136495-.5488095 0-.9083333-.3121237-.9083333-.9136495z"/><path d="m64.0809524 53.9531546c1.0815476 0 1.5440476-.9746391 1.5440476-2.0927835 0-1.1869072-.485119-2.0730515-1.5440476-2.0730515-1.0607143 0-1.5452381.8861443-1.5452381 2.0730515 0 1.1181444.460119 2.0927835 1.5452381 2.0927835m0-5.5201649c2.1916666 0 3.3625 1.5008247 3.3625 3.4273814 0 1.8296908-.8863095 3.4423299-3.3625 3.4423299-2.4815476 0-3.3666667-1.6126391-3.3666667-3.4423299 0-1.9265567 1.1726191-3.4273814 3.3666667-3.4273814"/><path d="m72.8880952 52.0612784c-.2.1883505-.5755952.2517319-.7863095.29l-.6607143.0998556c-.760119.1112165-1.1732143.348598-1.1732143.9016907 0 .4119794.3886905.7504124 1.0130953.7504124.9958333 0 1.6071428-.6499587 1.6071428-1.3268247zm1.8190477 1.3148659c0 .7629691.1845238.937567.1845238 1.2269691 0 .4125773-.3845238.6995876-.8214286.6995876-.7863095 0-1.0464286-.5016701-1.0714286-1.0637319-.7119047.7898763-1.5303571 1.0637319-2.4916666 1.0637319-1.0351191 0-2.0547619-.7127422-2.0547619-1.8631752 0-1.5145773 1.1422619-1.9403093 2.5392857-2.1041444l1.110119-.1225773c.4339286-.0514227.7863095-.1518763.7863095-.6780618 0-.5237938-.5369047-.7474227-1.1482142-.7474227-1.3464286 0-1.3851191 1.0009484-2.1059524 1.0009484-.4607143 0-.7738096-.3276701-.7738096-.704969 0-.7247011 1.0220239-1.6503093 2.8934524-1.6503093 1.7434524 0 2.9535715.5644536 2.9535715 1.8775258z"
        />
    </g>
</svg>